<svg viewBox="0 0 512 512" fill="none" xmlns="http://www.w3.org/2000/svg"><path d="M0 0h512v512H0V0z" fill="#E4EEF2"/><path d="M204.13 333.15h74.55a15.46 15.46 0 0 1-15.46 15.46H219.6a15.46 15.46 0 0 1-15.46-15.46z" fill="#ECF2FA"/><path d="M279 334.45a15.45 15.45 0 0 1-8.15 12.68c-.92.44-1.89.78-2.88 1.02l.06-.14a6.38 6.38 0 0 0-5.85-8.48l-56.26-1.6c-.37-1.15-.6-2.32-.69-3.52.41.06.83.1 1.25.1h19.65v1.37h4.13v-1.38h10.52l-.34.72 15.6-.01v-.7h21.83c.38.01.75-.01 1.13-.06z" fill="#8BBACC"/><path d="M215.47 335.21h-1.38v12.37h1.38v-12.37z" fill="#274B5B"/><path opacity=".2" d="M216.5 335.21h-1.38v10.65h1.38v-10.65zM225.09 335.21h-1.38v10.65h1.38v-10.65zM242.26 335.21h-1.37v10.65h1.38v-10.65zM250.85 335.21h-1.37v10.65h1.38v-10.65zM259.44 335.21h-1.37v10.65h1.37v-10.65z" fill="#274B5B"/><path opacity=".3" d="M256.7 335.21h-1.38v10.65h1.38v-10.65zM248.45 335.21h-1.37v10.65h1.37v-10.65zM239.86 335.21h-1.37v10.65h1.37v-10.65zM231.27 335.21h-1.37v10.65h1.37v-10.65zM222.68 335.21h-1.37v10.65h1.37v-10.65zM214.1 335.21h-1.38v10.65h1.37v-10.65z" fill="#fff"/><path opacity=".2" d="M233.68 335.21h-1.38v10.65h1.38v-10.65z" fill="#274B5B"/><path d="M224 335.21h-1.38v12.37H224v-12.37zM232.54 335.21h-1.38v12.37h1.38v-12.37zM241.07 335.21h-1.38v12.37h1.38v-12.37zM258.13 335.21h-1.38v12.37h1.38v-12.37zM266.66 335.21h-1.38v12.37h1.38v-12.37zM249.6 335.21h-1.38v12.37h1.37v-12.37z" fill="#274B5B"/><path opacity=".4" d="M470.99 218.75h-84.13c-.11-1.6-.25-3.2-.4-4.81h32.98a6.01 6.01 0 0 0 0-12.03h-34.76c-1.7-8.26-4.4-16-8.55-22.55-8.14-12.82-20.83-19.19-33.33-20.52-12.5-1.33-25.03 1.84-37.33 5.26-16.37 4.58-35.64 8.7-47.98-6.43-7.3-8.97-10.21-23.66-7.6-36.47.7-3.14 1.55-6.24 2.56-9.29h43.36a6 6 0 1 0 0-12.02h-40.19c.3-1.85.45-3.73.44-5.6a30.88 30.88 0 0 0-11.5-23.49c-6.3-4.96-13.69-6.72-20.95-7.97-16.22-2.84-32.95-3.7-48.74 1.84-14.95-16.14-36-21.59-54.38-13.96a35.6 35.6 0 0 0-13.63 9.66h35.84a5.85 5.85 0 0 1 0 11.7h-42.1c-2.7 8.76-2.67 19-2.54 28.69 0 1.08.03 2.17.05 3.26h16.97a6.01 6.01 0 0 1 0 12.02H98.31l.1 6.52h39.33a6 6 0 1 1 0 12.03H98.57c0 1.37.04 2.77.06 4.16.14 9.76.25 19.8-2.29 28.94-7.83 28.17-35.58 34.97-50.59 57.24h63.15a6.01 6.01 0 1 1 0 12.03H39.63a66.01 66.01 0 0 0-1.49 4.46h44.64a6.01 6.01 0 0 1 0 12.02H35.61a80.96 80.96 0 0 0 4.54 38.37c10.2 26.58 33.91 40.05 56.18 39.63 22.27-.42 43.51-12.37 63.5-25.62 15.09-10.03 30.9-21.23 47.7-19.64 17.14 1.6 31.8 16.17 47.31 26.08 25.26 16.15 54.67 20.28 81.86 11.48 12.02-3.89 23.94-10.52 32.74-22.17 8.55-11.34 13.4-26.31 15.8-42.26h23.01a5.85 5.85 0 0 0 0-11.69h-21.64c.43-5.38.63-10.8.64-16.15v-.69H471a6 6 0 1 0 0-12.02v-.01z" fill="url(#paint0_linear)"/><path d="M191.09 318.38s-28.07 34.95-31.88 83.96a2.15 2.15 0 0 1-4.19.51c-9.62-29.27-30.04-113.92 33.67-165.55" fill="#26C8BC"/><path d="M158.8 405.26c.14.46.44.85.83 1.13a2.14 2.14 0 0 1-3.23-1.13c-9.62-29.28-30.05-113.92 33.66-165.56l.06 1.95c-60.85 51.8-40.82 134.7-31.32 163.6z" fill="#F6DF9E"/><path opacity=".8" d="M152.52 393.94c-.16-13.6 3.3-27.83 7.85-40.58a212.26 212.26 0 0 1 7.49-18.13c8-17.07 11.73-35.83 10.86-54.66-.5-10.9-.91-23.13-.91-34.01 5.03-6.24 3.32-6.8 10.2-12.37l2.4 81.07s-28.07 34.96-31.87 83.97a2.06 2.06 0 0 1-.82 1.55" fill="#1B5A6E"/><path d="M152.43 347.92a1.2 1.2 0 0 1-1.19-1.44 1.21 1.21 0 0 1 1.65-.88 1.2 1.2 0 0 1 .39 1.97 1.2 1.2 0 0 1-.85.35zm0-1.72a.51.51 0 0 0-.48.32.51.51 0 0 0 .11.56.52.52 0 0 0 .56.11c.1-.04.18-.1.23-.19a.51.51 0 0 0-.43-.8z" fill="#274B5B"/><path opacity=".2" d="M152.43 348.95a2.24 2.24 0 1 1 0-4.47 2.24 2.24 0 0 1 0 4.47zm0-3.09a.86.86 0 1 0 0 1.72.86.86 0 0 0 0-1.72z" fill="#274B5B"/><path d="M157.23 303.6a1.2 1.2 0 1 1 0-2.4 1.2 1.2 0 0 1 0 2.4zm0-1.71a.52.52 0 0 0-.47.31.52.52 0 0 0 .67.67.52.52 0 0 0 .32-.47.52.52 0 0 0-.52-.51z" fill="#274B5B"/><path opacity=".2" d="M157.23 304.63a2.23 2.23 0 1 1 0-4.45 2.23 2.23 0 0 1 0 4.45zm0-3.09a.87.87 0 0 0-.8.53.86.86 0 0 0 .63 1.17.86.86 0 0 0 .97-1.17.86.86 0 0 0-.8-.53z" fill="#274B5B"/><path d="M325.92 303.6a1.2 1.2 0 1 1 0-2.4 1.2 1.2 0 0 1 0 2.4zm0-1.71a.52.52 0 0 0-.5.61.52.52 0 0 0 .7.38c.09-.04.17-.1.23-.2a.52.52 0 0 0-.07-.64.52.52 0 0 0-.36-.15z" fill="#274B5B"/><path opacity=".2" d="M325.92 304.63a2.23 2.23 0 1 1 0-4.45 2.23 2.23 0 0 1 0 4.45zm0-3.09a.87.87 0 0 0-.8.53.86.86 0 0 0 .63 1.17.86.86 0 0 0 .96-1.17.87.87 0 0 0-.46-.46.87.87 0 0 0-.33-.07z" fill="#274B5B"/><path d="M324.89 303.6a1.21 1.21 0 0 1-1.18-1.43 1.21 1.21 0 0 1 .94-.95 1.2 1.2 0 1 1 .24 2.39zm0-1.71a.52.52 0 0 0-.5.61.52.52 0 0 0 .7.38.51.51 0 0 0 .16-.84.51.51 0 0 0-.36-.15z" fill="#274B5B"/><path opacity=".2" d="M324.89 304.63a2.23 2.23 0 1 1 0-4.45 2.23 2.23 0 0 1 0 4.45zm0-3.09a.87.87 0 0 0-.8.53.86.86 0 0 0 .63 1.17.86.86 0 0 0 .96-1.17.86.86 0 0 0-.79-.53z" fill="#274B5B"/><path d="M164.28 268.56h-1.37v112.69h1.37V268.56z" fill="#274B5B"/><path opacity=".2" d="M165.66 265.82h-1.38v115.43h1.38V265.82z" fill="#274B5B"/><path opacity=".3" d="M162.91 268.56h-1.37v112.69h1.37V268.56z" fill="#fff"/><path d="M172.18 253.79h-1.37v101.69h1.37v-101.7z" fill="#274B5B"/><path opacity=".2" d="M173.56 253.79h-1.38v101.69h1.38v-101.7z" fill="#274B5B"/><path opacity=".3" d="M170.8 253.79h-1.37v101.69h1.38v-101.7z" fill="#fff"/><path opacity=".2" d="M312.32 440.34a27.85 27.85 0 0 1-27.8-27.84v-27.13h7.56v27.12a20.29 20.29 0 1 0 33.43-15.46l4.9-5.76a27.85 27.85 0 0 1-18.09 49.07z" fill="#A7594E"/><path opacity=".2" d="M309.17 428.57c-.81 0-1.63-.06-2.44-.18l1.1-7.48a8.99 8.99 0 0 0 10.03-11.13 9.01 9.01 0 0 0-14.13-5l-4.5-6.07a16.58 16.58 0 0 1 25.6 8.06 16.58 16.58 0 0 1-15.67 21.8h.01zM311.66 381.25a5.5 5.5 0 1 0 0-11 5.5 5.5 0 0 0 0 11z" fill="#F08778"/><path d="M322.48 406.3c-.15.45-.44.85-.84 1.12a2.16 2.16 0 0 0 2.73-.29c.23-.23.4-.52.5-.84 9.63-29.28 30.05-113.92-33.66-165.55l-.06 1.94c60.86 51.77 40.83 134.7 31.33 163.61z" fill="#fff"/><path d="M290.47 321.81s28.07 34.96 31.88 83.97a2.16 2.16 0 0 0 4.19.51c9.61-29.28 30.04-113.92-33.66-165.55" fill="#26C8BC"/><path opacity=".8" d="M329.05 397.36c.16-13.59-3.3-27.82-7.85-40.58a212.26 212.26 0 0 0-7.49-18.12c-8-17.06-11.74-35.81-10.89-54.64.5-10.9.92-23.12.92-34-5.04-6.24-3.33-6.8-10.2-12.38l-2.41 81.08s28.06 34.95 31.87 83.97a2.07 2.07 0 0 0 .82 1.54" fill="#1B5A6E"/><path d="M329.01 348.25a1.2 1.2 0 1 1 0-2.42 1.2 1.2 0 0 1 0 2.42zm0-1.72a.52.52 0 0 0-.47.32.52.52 0 0 0 .1.56.52.52 0 0 0 .57.1.51.51 0 0 0 .32-.47.52.52 0 0 0-.51-.5v-.01z" fill="#274B5B"/><path opacity=".2" d="M329.01 349.3a2.24 2.24 0 1 1 0-4.47 2.24 2.24 0 0 1 0 4.47zm0-3.1a.86.86 0 1 0 0 1.72.86.86 0 0 0 0-1.71z" fill="#274B5B"/><path d="M318.53 268.22h-1.37v116.12h1.37V268.22z" fill="#274B5B"/><path opacity=".2" d="M317.16 267.87h-1.37v106.85h1.37V267.87z" fill="#274B5B"/><path opacity=".3" d="M319.9 271.66h-1.37v112.68h1.38V271.66z" fill="#fff"/><path d="M310.63 256.88h-1.37v101.7h1.38v-101.7z" fill="#274B5B"/><path opacity=".2" d="M309.26 256.88h-1.37v98.25h1.37v-98.25z" fill="#274B5B"/><path opacity=".3" d="M312 256.88h-1.37v101.7h1.38v-101.7z" fill="#fff"/><path d="M324.51 407.95c-.19 0-.38-.02-.58-.04a4.68 4.68 0 0 1-4.15-4.33c-3.68-47.67-31.04-82.21-31.31-82.56l4.01-3.22c.3.36 7.28 9.12 14.81 24.05 6.75 13.4 15.16 34.4 17.45 59.22 4.68-14.68 11.46-41.84 9.9-71.44-2-37.51-16.62-67.58-43.39-89.3l3.25-4a118.24 118.24 0 0 1 34.23 44.5c6.4 14.53 10.12 30.86 11.05 48.53 1.69 31.84-6.03 60.86-10.79 75.33a4.68 4.68 0 0 1-4.48 3.26z" fill="#274B5B"/><path opacity=".2" d="M89.73 483.97H65.34a3.78 3.78 0 0 1 0-7.56h24.39a3.78 3.78 0 0 1 0 7.56z" fill="#F08778"/><path opacity=".2" d="M197.28 450.28a31.57 31.57 0 0 1-20.49-55.67l4.9 5.76a24.05 24.05 0 1 0 39.62 18.32v-59.43h7.56v59.43a31.58 31.58 0 0 1-31.57 31.58l-.02.01z" fill="#A7594E"/><path opacity=".2" d="M255.13 464.74a17.7 17.7 0 0 1-17.66-17.68v-58.58h7.56v58.58a10.13 10.13 0 1 0 16.7-7.72l4.9-5.76a17.69 17.69 0 0 1-11.5 31.16zM244.33 359.6h-7.56v18.21h7.56v-18.2zM199.24 435.1c-.82 0-1.64-.06-2.45-.18l1.1-7.47a9.02 9.02 0 1 0-4.1-16.14l-4.5-6.07a16.57 16.57 0 1 1 9.94 29.86z" fill="#F08778"/><path opacity=".2" d="M262.88 424.88a12.02 12.02 0 1 1 0-24.04 12.02 12.02 0 0 1 0 24.04zm0-16.49a4.47 4.47 0 1 0 0 8.93 4.47 4.47 0 0 0 0-8.93zM203.42 394.3a12.03 12.03 0 1 1 .05-24.05 12.03 12.03 0 0 1-.05 24.06zm0-16.48a4.46 4.46 0 1 0 0 8.94 4.46 4.46 0 0 0 0-8.95zM366.63 394.3a12.02 12.02 0 1 1 0-24.04 12.02 12.02 0 0 1 0 24.05zm0-16.48a4.46 4.46 0 1 0 0 8.93 4.46 4.46 0 0 0 0-8.94zM131.3 410.1a2.75 2.75 0 1 0 0-5.5 2.75 2.75 0 0 0 0 5.5zM284.52 457.17a2.75 2.75 0 1 0 0-5.5 2.75 2.75 0 0 0 0 5.5z" fill="#F08778"/><path opacity=".2" d="M376.94 467.48h-7.56a20.3 20.3 0 0 0-20.27-20.27h-5.15v-7.56h5.15a27.87 27.87 0 0 1 27.83 27.83z" fill="#A7594E"/><path opacity=".2" d="M101.76 468.94H94.2a54.77 54.77 0 0 1 54.7-54.7h10.91v7.55h-10.9a47.2 47.2 0 0 0-47.15 47.15zM431.46 467.48h-7.53a58.48 58.48 0 0 0-58.4-58.42H352.2v-7.55h13.32a66.03 66.03 0 0 1 65.94 65.97z" fill="#F08778"/><path opacity=".2" d="M138.86 467.48h-7.56a27.86 27.86 0 0 1 27.83-27.83h5.15v7.56h-5.15a20.3 20.3 0 0 0-20.27 20.27z" fill="#A7594E"/><path opacity=".2" d="M389.99 483.97H102.44a3.78 3.78 0 0 1 0-7.56h287.55a3.78 3.78 0 0 1 0 7.56zM51.94 483.97a3.65 3.65 0 0 1-1.45-.29 4.17 4.17 0 0 1-1.23-.82 3.75 3.75 0 0 1-1.03-3.41 4 4 0 0 1 .55-1.36 3.77 3.77 0 0 1 5.25-1.05 3.77 3.77 0 0 1 1.05 5.25 3.73 3.73 0 0 1-3.14 1.68zM428.46 483.97h-24.38a3.78 3.78 0 0 1 0-7.56h24.38a3.78 3.78 0 0 1 0 7.56zM441.87 483.97a3.66 3.66 0 0 1-1.45-.29 4.18 4.18 0 0 1-1.24-.82 3.8 3.8 0 0 1-.82-4.13 3.78 3.78 0 1 1 6.64 3.55 3.8 3.8 0 0 1-1.7 1.4 3.97 3.97 0 0 1-1.44.29z" fill="#F08778"/><path d="M156.7 407.6a4.68 4.68 0 0 1-4.46-3.26c-4.76-14.46-12.48-43.48-10.8-75.33.94-17.67 4.68-34 11.06-48.53a118.24 118.24 0 0 1 34.23-44.5l3.25 4.01c-26.8 21.72-41.4 51.76-43.39 89.3-1.57 29.6 5.26 56.75 9.9 71.44 2.28-24.82 10.69-45.83 17.44-59.22 7.53-14.94 14.51-23.7 14.8-24.06l4.02 3.23c-.1.13-7.01 8.83-14.29 23.28-6.7 13.33-15.1 34.44-17.02 59.27a4.68 4.68 0 0 1-4.73 4.37z" fill="#274B5B"/><path d="M246.85 34.55a7.64 7.64 0 0 0-11.45 0c-16.5 18.67-62.97 78.72-62.97 162.64 0 82.14 17.82 119.03 24.77 130.29 1.48 2.4 4.72 3.95 8.24 3.95h71.38c3.54 0 6.77-1.54 8.24-3.95 6.95-11.26 24.78-48.15 24.78-130.29 0-83.92-46.49-143.97-63-162.64z" fill="#26C8BC"/><path d="M241.58 104h-1.37v226.75h1.37V104z" fill="#274B5B"/><path opacity=".2" d="M240.2 104h-1.37v226.75h1.38V104z" fill="#274B5B"/><path opacity=".3" d="M242.96 104h-1.38v226.75h1.38V104z" fill="#fff"/><path d="M286.59 101.94H194.2a302.88 302.88 0 0 1 21.74-42.5C229.11 39.75 239.2 29 239.2 29s14.03 14.93 30.57 41.91l.24.4a366 366 0 0 1 16.58 30.63z" fill="#ECF2FA"/><path d="M285.9 100.95l-5.06-.73c-8.34-12.2-31.42-37.1-63.23-40.53.59-1.1 2.93-3.35 3.51-4.4 4.57-7.5 8.73-12.55 12.12-17.36a9.95 9.95 0 0 1 16.12-.2 269.74 269.74 0 0 1 19.55 30.09c.07.13.83.26.9.4 4.95 8.98 14.03 14.52 16.09 32.73z" fill="#8BBACC"/><path d="M208.1 93.16a1.72 1.72 0 0 1-1.5-2.54 207.3 207.3 0 0 1 5.33-9.15c1.75-2.93 3.56-5.9 5.17-8.85a1.72 1.72 0 0 1 3.02 1.64 211.83 211.83 0 0 1-5.27 8.98 209.78 209.78 0 0 0-5.26 9.02 1.72 1.72 0 0 1-1.49.9z" fill="#fff"/><g opacity=".4" fill="#426270"><path opacity=".4" d="M258.27 164.1c2.22-3.58 3.78-6.61 4.02-6.5.24.1-1.03 3.33-3.27 6.96-2.25 3.63-4.56 6.21-4.74 6.07-.18-.15 1.8-2.94 4-6.53zM262.24 167.33c1.43-2.41 2.43-4.47 2.22-4.6-.21-.12-1.54 1.74-2.97 4.15-1.43 2.42-2.43 4.47-2.22 4.6.21.12 1.54-1.74 2.97-4.15z"/><path opacity=".4" d="M259.15 166.48c3.22 1.3 5.92 2.2 5.84 2.45-.07.23-2.92-.3-6.18-1.64-3.27-1.33-5.72-2.92-5.6-3.1.12-.2 2.7 1 5.94 2.3zM262.2 165.6c2.92 1.38 5.4 2.24 5.32 2.48-.07.24-2.7-.28-5.69-1.68-3-1.4-5.1-3.1-4.96-3.27.14-.17 2.4 1.12 5.33 2.47z"/></g><path d="M218.99 333.15h-12.53c-3.55 0-6.77-1.54-8.25-3.96-6.94-11.28-24.75-48.26-24.75-130.6 0-80.64 42.68-139.28 60.8-160.5-16.23 19.24-51.39 70.17-51.39 150.42l20.61-28.92c-.42 1.13-42.05 122.2 15.5 173.56z" fill="#F6DF9E"/><path d="M210.58 331.6h-3.44c-3.54 0-6.77-1.54-8.24-3.96-6.94-11.28-24.76-48.26-24.76-130.6 0-80.64 42.69-139.28 60.78-160.48-9.22 10.93-24.6 32.16-36.14 63.15-11.83 26.54-21.21 59.5-21.21 97.3 0 82.34 17.81 119.32 24.75 130.6 1.5 2.45 4.72 4 8.26 4z" fill="#fff"/><path opacity=".8" d="M261.18 331.43h12.52c3.55 0 6.78-1.54 8.25-3.94 6.94-11.25 24.75-48.13 24.75-130.24 0-80.39-42.68-138.87-60.8-160.02 16.23 19.17 55.17 69.94 55.17 149.98l-17.83-28.84c.4 1.12 35.5 121.85-22.06 173.06z" fill="#1B5A6E"/><path opacity=".9" d="M197.35 129.1c.59-2.3 1.29-4.56 2.1-6.79.69-1.82 1.47-3.6 2.35-5.32 1.51-2.93 2.82-4.6 3.37-4.37.54.23.28 2.29-.47 5.43-.36 1.57-.83 3.44-1.37 5.47l-1.74 6.63-1.68 6.69c-.5 2.06-.97 3.9-1.4 5.46-.84 3.11-1.56 5.05-2.17 5-.61-.07-.97-2.13-.9-5.45.06-1.93.23-3.86.51-5.78.35-2.35.81-4.67 1.4-6.97zM195.84 155.8c.5-2.8-.06-5.25-1.25-5.46-1.19-.22-2.56 1.88-3.07 4.68-.5 2.8.05 5.24 1.24 5.46 1.2.21 2.57-1.88 3.08-4.68z" fill="#fff"/><g opacity=".2" fill="#426270"><path opacity=".2" d="M230.53 50.47a154.9 154.9 0 0 1 7.43-5.1c1.94-1.23 3.2-1.94 3.27-1.83.07.11-1.06.98-2.93 2.34l-7.27 5.26-7.26 5.34c-1.87 1.35-3.05 2.15-3.13 2.06-.07-.08.98-1.07 2.75-2.54 1.78-1.47 4.29-3.45 7.14-5.53z"/><path opacity=".2" d="M231.58 53.81c6.26-2.4 11.3-4.42 11.4-4.19.05.11-1.16.76-3.15 1.69-1.98.92-4.8 2.12-7.94 3.32-3.13 1.2-6.03 2.2-8.13 2.83-2.1.64-3.44.97-3.47.86-.1-.24 5.03-2.1 11.29-4.5z"/></g><path d="M234.88 143.34a1.2 1.2 0 0 1-.85-2.06 1.2 1.2 0 0 1 2.06.85 1.2 1.2 0 0 1-1.2 1.2zm0-1.72a.52.52 0 0 0-.47.32.51.51 0 1 0 .47-.32z" fill="#274B5B"/><path opacity=".2" d="M234.88 144.37a2.23 2.23 0 1 1 0-4.46 2.23 2.23 0 0 1 0 4.46zm0-3.1a.86.86 0 0 0-.8.53.85.85 0 0 0 .2.94.86.86 0 0 0 1.46-.6.84.84 0 0 0-.25-.62.85.85 0 0 0-.6-.26v.02z" fill="#274B5B"/><path d="M234.88 119.8a1.2 1.2 0 0 1-1.18-1.44 1.2 1.2 0 1 1 1.18 1.44zm0-1.72a.51.51 0 0 0-.47.32.51.51 0 0 0 .1.56.51.51 0 1 0 .36-.87z" fill="#274B5B"/><path opacity=".2" d="M234.88 120.84a2.24 2.24 0 1 1 0-4.47 2.24 2.24 0 0 1 0 4.47zm0-3.1a.86.86 0 0 0-.84 1.03.86.86 0 1 0 .84-1.02z" fill="#274B5B"/><path d="M246.9 127.36a1.2 1.2 0 1 1 0-2.4 1.2 1.2 0 0 1 0 2.4zm0-1.71c-.1 0-.2.03-.28.08a.52.52 0 0 0-.22.53.52.52 0 0 0 .7.38.51.51 0 0 0-.2-1z" fill="#274B5B"/><path opacity=".2" d="M246.9 128.4a2.24 2.24 0 1 1 0-4.47 2.24 2.24 0 0 1 0 4.47zm0-3.1a.87.87 0 0 0-.8.54.86.86 0 1 0 .8-.53z" fill="#274B5B"/><path d="M246.9 212.9a1.2 1.2 0 1 1 0-2.4 1.2 1.2 0 0 1 0 2.4zm0-1.71c-.1 0-.2.03-.28.08a.52.52 0 0 0-.22.53.52.52 0 0 0 .7.38.51.51 0 0 0 .32-.48.52.52 0 0 0-.52-.5v-.01z" fill="#274B5B"/><path opacity=".2" d="M246.9 213.94a2.24 2.24 0 1 1 0-4.47 2.24 2.24 0 0 1 0 4.47zm0-3.1a.87.87 0 0 0-.8.54.86.86 0 1 0 1.41-.28.87.87 0 0 0-.6-.26z" fill="#274B5B"/><path d="M247.28 230.43a1.2 1.2 0 1 1 0-2.41 1.2 1.2 0 0 1 0 2.41zm0-1.72a.51.51 0 0 0-.5.62c.01.1.06.19.13.26a.52.52 0 0 0 .8-.08.51.51 0 0 0-.07-.65.51.51 0 0 0-.36-.15z" fill="#274B5B"/><path opacity=".2" d="M247.28 231.46a2.24 2.24 0 1 1 0-4.48 2.24 2.24 0 0 1 0 4.48zm0-3.1a.85.85 0 0 0-.8.54.86.86 0 1 0 1.66.33.86.86 0 0 0-.86-.85v-.01z" fill="#274B5B"/><path d="M233.83 208.1a1.2 1.2 0 0 1-1.18-1.44 1.2 1.2 0 1 1 1.18 1.44zm0-1.72a.51.51 0 0 0-.48.32.52.52 0 0 0 .11.56.51.51 0 0 0 .88-.36.52.52 0 0 0-.51-.52z" fill="#274B5B"/><path opacity=".2" d="M233.83 209.13a2.24 2.24 0 1 1 0-4.47 2.24 2.24 0 0 1 0 4.47zm0-3.1a.86.86 0 1 0 0 1.73.86.86 0 0 0 0-1.72z" fill="#274B5B"/><path d="M233.83 225.62a1.2 1.2 0 1 1 0-2.42 1.2 1.2 0 0 1 0 2.42zm0-1.72a.51.51 0 0 0-.48.32.51.51 0 0 0 .9.48.52.52 0 0 0 .1-.29.52.52 0 0 0-.51-.5v-.01z" fill="#274B5B"/><path opacity=".2" d="M233.83 226.63a2.24 2.24 0 1 1 0-4.47 2.24 2.24 0 0 1 0 4.47zm0-3.1a.86.86 0 1 0 .86.87.87.87 0 0 0-.86-.84v-.02z" fill="#274B5B"/><path d="M234.88 166.87a1.2 1.2 0 0 1-.85-2.05 1.2 1.2 0 0 1 1.31-.26 1.2 1.2 0 0 1 .75 1.1 1.2 1.2 0 0 1-1.2 1.21zm0-1.72c-.1 0-.2.03-.28.1a.5.5 0 0 0-.22.52.51.51 0 1 0 .5-.62z" fill="#274B5B"/><path opacity=".2" d="M234.88 167.9a2.24 2.24 0 1 1 0-4.47 2.24 2.24 0 0 1 0 4.47zm0-3.1a.86.86 0 0 0-.84 1.04.86.86 0 1 0 .84-1.03z" fill="#274B5B"/><path d="M262.36 95.07a1.2 1.2 0 1 1 0-2.4 1.2 1.2 0 0 1 0 2.4zm0-1.72a.51.51 0 0 0-.36.88.51.51 0 0 0 .79-.08.51.51 0 0 0-.06-.65.51.51 0 0 0-.37-.15z" fill="#274B5B"/><path opacity=".2" d="M262.36 96.1a2.23 2.23 0 1 1 0-4.46 2.23 2.23 0 0 1 0 4.46zm0-3.1a.86.86 0 1 0 0 1.73.86.86 0 0 0 0-1.72z" fill="#274B5B"/><path d="M219.08 95.07a1.2 1.2 0 1 1 0-2.4 1.2 1.2 0 0 1 0 2.4zm0-1.72a.52.52 0 1 0 0 1.03.52.52 0 0 0 0-1.03z" fill="#274B5B"/><path opacity=".2" d="M219.08 96.1a2.23 2.23 0 1 1 0-4.47 2.23 2.23 0 0 1 0 4.47zm0-3.1a.86.86 0 0 0-.61 1.47.87.87 0 0 0 .94.2.86.86 0 0 0 .53-.8.86.86 0 0 0-.86-.86z" fill="#274B5B"/><path d="M240.72 95.07a1.2 1.2 0 1 1 0-2.4 1.2 1.2 0 0 1 0 2.4zm0-1.72a.52.52 0 1 0 0 1.03.52.52 0 0 0 0-1.03z" fill="#274B5B"/><path opacity=".2" d="M240.72 96.1a2.23 2.23 0 1 1 0-4.46 2.23 2.23 0 0 1 0 4.46zm0-3.1a.86.86 0 1 0 0 1.73.86.86 0 0 0 0-1.72z" fill="#274B5B"/><path d="M234.88 251.73a1.2 1.2 0 0 1-.85-2.05 1.2 1.2 0 0 1 1.31-.27 1.2 1.2 0 0 1-.46 2.32zm0-1.72a.52.52 0 0 0-.47.32.51.51 0 1 0 .99.2.51.51 0 0 0-.52-.51z" fill="#274B5B"/><path opacity=".2" d="M234.88 252.76a2.23 2.23 0 1 1 0-4.46 2.23 2.23 0 0 1 0 4.46zm0-3.1a.86.86 0 0 0-.84 1.03.86.86 0 1 0 .84-1.02z" fill="#274B5B"/><path d="M234.88 276.91a1.2 1.2 0 0 1-.85-2.05 1.2 1.2 0 1 1 .85 2.05zm0-1.72c-.1 0-.2.04-.28.1a.5.5 0 0 0-.22.52.51.51 0 0 0 1.02-.1.52.52 0 0 0-.52-.5v-.01z" fill="#274B5B"/><path opacity=".2" d="M234.88 277.95a2.23 2.23 0 1 1 0-4.45 2.23 2.23 0 0 1 0 4.45zm0-3.09a.86.86 0 0 0-.8.53.85.85 0 0 0 .2.94.86.86 0 0 0 1.46-.6.86.86 0 0 0-.86-.87z" fill="#274B5B"/><path d="M234.88 302.12a1.2 1.2 0 0 1-1.18-1.44 1.2 1.2 0 1 1 1.18 1.44zm0-1.72a.51.51 0 0 0-.47.32.51.51 0 0 0 .1.56.51.51 0 0 0 .88-.36.51.51 0 0 0-.5-.52z" fill="#274B5B"/><path opacity=".2" d="M234.88 303.15a2.24 2.24 0 1 1 0-4.47 2.24 2.24 0 0 1 0 4.47zm0-3.1a.86.86 0 0 0-.84 1.03.87.87 0 0 0 .67.68.86.86 0 1 0 .17-1.7z" fill="#274B5B"/><path d="M234.88 327.3a1.2 1.2 0 0 1-1.18-1.43 1.2 1.2 0 1 1 1.18 1.44zm0-1.71a.52.52 0 0 0-.5.62.52.52 0 0 0 .7.37.52.52 0 0 0-.2-.99z" fill="#274B5B"/><path opacity=".2" d="M234.88 328.37a2.23 2.23 0 1 1 0-4.46 2.23 2.23 0 0 1 0 4.46zm0-3.1a.86.86 0 0 0-.8.54.85.85 0 0 0 .2.93.86.86 0 0 0 1.46-.6.86.86 0 0 0-.86-.89v.02z" fill="#274B5B"/><path opacity=".6" d="M242.78 201.57a29.03 29.03 0 1 0 0-58.06 29.03 29.03 0 0 0 0 58.06z" fill="#5C7869"/><path d="M243.13 190.92a29.03 29.03 0 1 0 0-58.06 29.03 29.03 0 0 0 0 58.06z" fill="#94E0F7"/><path opacity=".2" d="M242.78 189.2a25.26 25.26 0 1 1 0-50.51 25.26 25.26 0 0 1 0 50.52zm0-48.77a23.53 23.53 0 1 0 0 47.07 23.53 23.53 0 0 0 0-47.08z" fill="#274B5B"/><path d="M252.84 136l-16.57 55.63a28.87 28.87 0 0 1-11.45-6.08l15.12-50.72c4.33-.58 8.74-.18 12.9 1.17zM262.06 141.03l-15.33 51.46a28.53 28.53 0 0 1-6.43-.07l16.33-54.86c1.93.95 3.75 2.12 5.43 3.47z" fill="#fff"/><path opacity=".8" d="M222.34 170.08a.7.7 0 0 1-.68-.59c-1-6.29.2-12.73 3.39-18.24 1.8-3.09 3.91-4.94 6.3-5.5.08-.03.18-.04.27-.03a.7.7 0 0 1 .04 1.37c-2 .47-3.82 2.1-5.42 4.85a26.46 26.46 0 0 0-3.22 17.34.68.68 0 0 1-.58.78l-.1.02z" fill="#fff"/><path d="M262.7 165.82a1.2 1.2 0 0 1-1.18-1.44 1.2 1.2 0 1 1 1.19 1.44zm0-1.72a.52.52 0 0 0-.5.62.52.52 0 0 0 .7.37.51.51 0 0 0 .32-.47.51.51 0 0 0-.51-.5v-.02z" fill="#274B5B"/><path opacity=".2" d="M262.7 166.87a2.23 2.23 0 1 1 0-4.45 2.23 2.23 0 0 1 0 4.45zm0-3.09a.86.86 0 0 0-.84 1.03.86.86 0 0 0 1.7-.17.87.87 0 0 0-.52-.8.87.87 0 0 0-.33-.06z" fill="#274B5B"/><path d="M242.78 196.59a32.64 32.64 0 1 1 0-65.29 32.64 32.64 0 0 1 0 65.29zm0-58.06a25.42 25.42 0 1 0 0 50.82 25.42 25.42 0 0 0 0-50.82z" fill="#274B5B"/><path d="M224.36 330.06v-50.13a67.2 67.2 0 0 1 17.89-45.74 67.24 67.24 0 0 1 17.54 45.38V330" fill="#ECF2FA"/><path d="M244.67 240.9a65.45 65.45 0 0 0-15.78 42.64v49.27h-4.13v-49.27c0-16.71 6.4-32.8 17.9-44.95.68.76 1.36 1.53 2.01 2.3z" fill="#fff"/><path d="M256.35 282.57v49.55l-14.22.03c13.23-26.6 9.03-62.42 6.35-80.69a65.42 65.42 0 0 1 7.87 31.11z" fill="#8BBACC"/><g opacity=".4" fill="#426270"><path opacity=".4" d="M210.52 241.06c2.21-3.58 3.78-6.61 4.02-6.5.24.1-1.03 3.32-3.28 6.96-2.24 3.63-4.55 6.21-4.73 6.06-.18-.14 1.8-2.94 4-6.52zM214.03 243.33c1.42-2.42 2.4-4.48 2.2-4.6-.22-.13-1.54 1.73-2.96 4.15-1.42 2.42-2.4 4.48-2.2 4.6.21.13 1.53-1.73 2.96-4.15z"/><path opacity=".4" d="M211.4 243.43c3.22 1.3 5.92 2.2 5.84 2.45-.08.24-2.92-.3-6.19-1.63-3.26-1.34-5.7-2.93-5.6-3.11.13-.2 2.71 1 5.94 2.3zM214.44 242.56c2.93 1.38 5.4 2.24 5.33 2.48-.07.24-2.7-.28-5.7-1.68-2.99-1.4-5.09-3.1-4.95-3.27.13-.18 2.4 1.12 5.32 2.47z"/></g><path d="M235.22 267.87a1.2 1.2 0 0 1-1.18-1.44 1.2 1.2 0 1 1 1.19 1.44zm0-1.72a.52.52 0 0 0-.36.88.51.51 0 1 0 .36-.87z" fill="#274B5B"/><path opacity=".2" d="M235.23 268.9a2.24 2.24 0 1 1 0-4.46 2.24 2.24 0 0 1 0 4.47zm0-3.08a.86.86 0 0 0-.85 1.02.86.86 0 0 0 1.7-.16.86.86 0 0 0-.85-.88v.02z" fill="#274B5B"/><path d="M235.22 318.04a1.2 1.2 0 1 1 0-2.42 1.2 1.2 0 0 1 0 2.42zm0-1.72a.51.51 0 0 0-.36.88.51.51 0 1 0 .37-.88z" fill="#274B5B"/><path opacity=".2" d="M235.23 319.06a2.24 2.24 0 1 1 0-4.47 2.24 2.24 0 0 1 0 4.48zm0-3.09a.86.86 0 0 0-.85 1.03.86.86 0 1 0 .85-1.03z" fill="#274B5B"/><path d="M235.22 292.96a1.2 1.2 0 0 1-1.18-1.44 1.2 1.2 0 1 1 1.19 1.44zm0-1.72a.51.51 0 0 0-.5.62.52.52 0 0 0 .7.37.52.52 0 0 0-.2-1z" fill="#274B5B"/><path opacity=".2" d="M235.23 293.99a2.24 2.24 0 1 1 0-4.47 2.24 2.24 0 0 1 0 4.47zm0-3.1a.86.86 0 0 0-.85 1.03.86.86 0 1 0 .85-1.03z" fill="#274B5B"/><path d="M246.22 267.87a1.2 1.2 0 0 1-1.18-1.44 1.2 1.2 0 1 1 1.18 1.44zm0-1.72a.51.51 0 0 0-.48.32.51.51 0 0 0 .38.7.51.51 0 1 0 .1-1v-.02z" fill="#274B5B"/><path opacity=".2" d="M246.22 268.9a2.24 2.24 0 1 1 0-4.46 2.24 2.24 0 0 1 0 4.47zm0-3.08a.87.87 0 0 0-.8.53.86.86 0 1 0 1.6 0 .86.86 0 0 0-.8-.55v.02z" fill="#274B5B"/><path d="M246.22 318.04a1.2 1.2 0 1 1 0-2.42 1.2 1.2 0 0 1 0 2.42zm0-1.72a.51.51 0 0 0-.48.31.51.51 0 0 0 .38.7.51.51 0 0 0 .61-.5.51.51 0 0 0-.51-.51z" fill="#274B5B"/><path opacity=".2" d="M246.22 319.06a2.24 2.24 0 1 1 0-4.47 2.24 2.24 0 0 1 0 4.48zm0-3.09a.86.86 0 1 0 0 1.72.86.86 0 0 0 0-1.72z" fill="#274B5B"/><path d="M246.22 292.96a1.2 1.2 0 0 1-1.18-1.44 1.2 1.2 0 0 1 2.38.23 1.2 1.2 0 0 1-1.2 1.2zm0-1.72a.51.51 0 0 0-.48.32.51.51 0 0 0 .38.7.51.51 0 0 0 .61-.5.51.51 0 0 0-.51-.52z" fill="#274B5B"/><path opacity=".2" d="M246.22 293.99a2.24 2.24 0 1 1 0-4.47 2.24 2.24 0 0 1 0 4.47zm0-3.1a.86.86 0 1 0 0 1.72.86.86 0 0 0 0-1.72z" fill="#274B5B"/><path d="M241.58 237.65h-1.37v93.1h1.37v-93.1z" fill="#274B5B"/><path opacity=".2" d="M240.55 241.08h-1.38v88.63h1.38v-88.63z" fill="#274B5B"/><path opacity=".8" d="M243.3 241.08h-1.38v88.29h1.37v-88.3z" fill="#fff"/><path d="M262.54 351.53H218.9a18.06 18.06 0 0 1-18.04-18.04v-2.58h79.7v2.58a18.06 18.06 0 0 1-18.03 18.04zm-56.26-15.46a12.9 12.9 0 0 0 12.63 10.3h43.63a12.9 12.9 0 0 0 12.62-10.3h-68.88z" fill="#274B5B"/><path opacity=".15" d="M277.37 121.92a9.3 9.3 0 0 1 11.22 6.86l2.21 9.16a9.3 9.3 0 0 1-18.08 4.36l-2.2-9.16a9.3 9.3 0 0 1 6.85-11.22z" fill="#fff"/><path opacity=".15" d="M269.12 117.88a9.3 9.3 0 0 1 12.91 2.48 9.3 9.3 0 0 1-2.48 12.92 9.3 9.3 0 0 1-12.92-2.49 9.3 9.3 0 0 1 2.49-12.91z" fill="#fff"/><g opacity=".4" fill="#426270"><path opacity=".4" d="M276.83 188.5c2.2-3.58 3.77-6.62 4.01-6.51.24.1-1.02 3.33-3.27 6.96s-4.56 6.22-4.74 6.07c-.18-.15 1.8-2.94 4-6.53zM280.33 190.77c1.42-2.42 2.4-4.48 2.2-4.6-.21-.13-1.53 1.73-2.95 4.15-1.43 2.42-2.41 4.48-2.2 4.6.2.13 1.53-1.73 2.95-4.15z"/><path opacity=".4" d="M277.68 190.88c3.23 1.3 5.92 2.2 5.85 2.44-.08.24-2.93-.3-6.19-1.63-3.26-1.34-5.71-2.93-5.6-3.11.12-.19 2.72 1 5.94 2.3zM280.75 190c2.92 1.37 5.4 2.24 5.33 2.48-.07.24-2.7-.29-5.7-1.69s-5.1-3.09-4.96-3.26c.14-.18 2.4 1.1 5.33 2.47z"/></g><g opacity=".4" fill="#426270"><path opacity=".4" d="M249 82.68c2.21-3.58 3.78-6.61 4.02-6.5.24.1-1.03 3.33-3.28 6.96-2.24 3.63-4.55 6.21-4.73 6.07-.18-.15 1.8-2.94 4-6.53zM252.5 84.96c1.42-2.42 2.4-4.48 2.2-4.6-.21-.13-1.53 1.74-2.96 4.16-1.42 2.41-2.4 4.48-2.2 4.6.22.12 1.54-1.74 2.96-4.16z"/><path opacity=".4" d="M249.87 85.06c3.22 1.3 5.92 2.2 5.84 2.45-.07.23-2.92-.3-6.18-1.64-3.27-1.33-5.72-2.92-5.6-3.1.12-.2 2.7 1 5.94 2.3zM252.93 84.18c2.92 1.38 5.4 2.24 5.32 2.48-.07.24-2.7-.28-5.7-1.68-2.99-1.4-5.09-3.1-4.95-3.27.13-.17 2.4 1.12 5.33 2.47z"/></g><path d="M281.26 99.02h-85.89v1.72h85.89v-1.72z" fill="#8BBACC"/><path d="M288.89 105.31h-95.95l1.17-5.15h94.2l.58 5.16z" fill="#274B5B"/><path d="M276.13 334.01h-71.4c-4.46 0-8.46-1.98-10.43-5.18-7.56-12.27-25.15-49.64-25.15-131.73 0-80.45 42.39-139.36 60.61-160.95a13.97 13.97 0 0 1 21.36 0c18.22 21.59 60.6 80.5 60.59 160.95 0 82.08-17.58 119.47-25.14 131.73-1.95 3.2-5.97 5.18-10.44 5.18zm-35.7-297.67a8.77 8.77 0 0 0-6.73 3.13c-17.86 21.16-59.4 78.87-59.4 157.63 0 35.2 3.27 65.88 9.7 91.16 5.3 20.84 11.47 32.67 14.68 37.87 1 1.63 3.45 2.72 6.05 2.72h71.4c2.63 0 5.05-1.09 6.05-2.72 3.2-5.2 9.35-17.05 14.69-37.88 6.43-25.28 9.69-55.95 9.69-91.15 0-78.76-41.51-136.47-59.38-157.63a8.77 8.77 0 0 0-6.76-3.13z" fill="#274B5B"/><path d="M225.56 330.81h-5.15v-49.26A67.74 67.74 0 0 1 239 234.8l1.88-1.99 1.88 2A67.79 67.79 0 0 1 261 281.2v49.55h-5.15V281.2a62.63 62.63 0 0 0-15.02-40.75 62.56 62.56 0 0 0-15.3 41.09l.02 49.27zM325.92 302.92a1.2 1.2 0 1 1 0-2.41 1.2 1.2 0 0 1 0 2.4zm0-1.72a.52.52 0 0 0-.48.31.51.51 0 0 0 .12.56.52.52 0 0 0 .56.12.5.5 0 0 0 .31-.48.51.51 0 0 0-.51-.5v-.01z" fill="#274B5B"/><path opacity=".2" d="M325.92 303.95a2.23 2.23 0 1 1 0-4.46 2.23 2.23 0 0 1 0 4.46zm0-3.1a.87.87 0 0 0-.8.54.86.86 0 0 0 .63 1.17.86.86 0 0 0 1.03-.84.86.86 0 0 0-.86-.86z" fill="#274B5B"/><defs><linearGradient id="paint0_linear" x1="35.03" y1="189.38" x2="477" y2="189.38" gradientUnits="userSpaceOnUse"><stop stop-color="#C3F6EE"/><stop offset=".38" stop-color="#C6EBFD"/></linearGradient></defs></svg>